<svg width="618" height="98" viewBox="0 0 618 98" fill="none" xmlns="http://www.w3.org/2000/svg">
<path d="M49 0L60.0012 33.8582L95.6018 33.8582L66.8003 54.7837L77.8015 88.6418L49 67.7163L20.1985 88.6418L31.1997 54.7837L2.39823 33.8582L37.9988 33.8582L49 0Z" fill="#868FB8"/>
<path d="M179 0L190.001 33.8582L225.602 33.8582L196.8 54.7837L207.801 88.6418L179 67.7163L150.199 88.6418L161.2 54.7837L132.398 33.8582L167.999 33.8582L179 0Z" fill="#868FB8"/>
<path d="M309 0L320.001 33.8582L355.602 33.8582L326.8 54.7837L337.801 88.6418L309 67.7163L280.199 88.6418L291.2 54.7837L262.398 33.8582L297.999 33.8582L309 0Z" fill="#868FB8"/>
<path d="M439 0L450.001 33.8582L485.602 33.8582L456.8 54.7837L467.801 88.6418L439 67.7163L410.199 88.6418L421.2 54.7837L392.398 33.8582L427.999 33.8582L439 0Z" fill="#868FB8"/>
<path d="M569 0L580.001 33.8582L615.602 33.8582L586.8 54.7837L597.801 88.6418L569 67.7163L540.199 88.6418L551.2 54.7837L522.398 33.8582L557.999 33.8582L569 0Z" fill="#868FB8"/>
</svg>
